<?xml version="1.0" encoding="iso-8859-1"?>
<!-- Generator: Adobe Illustrator 19.0.0, SVG Export Plug-In . SVG Version: 6.00 Build 0)  -->
<svg version="1.1" id="Layer_1" xmlns="http://www.w3.org/2000/svg" xmlns:xlink="http://www.w3.org/1999/xlink" x="0px" y="0px"
	 viewBox="0 0 512 512" style="enable-background:new 0 0 512 512;" xml:space="preserve">
<g>
	<g>
		<g>
			<path style="fill:#4D4086;" d="M25.6,285.867c-14.114,0-25.6,11.486-25.6,25.6V345.6c0,14.114,11.486,25.6,25.6,25.6s25.6-11.486,25.6-25.6v-34.133
				C51.2,297.353,39.714,285.867,25.6,285.867z"/>
			<path style="fill:#4D4086;" d="M93.867,251.733c-14.114,0-25.6,11.486-25.6,25.6V345.6c0,14.114,11.486,25.6,25.6,25.6c14.114,0,25.6-11.486,25.6-25.6
				v-68.267C119.467,263.219,107.981,251.733,93.867,251.733z"/>
			<path style="fill:#4D4086;" d="M162.133,217.6c-14.114,0-25.6,11.486-25.6,25.6v102.4c0,14.114,11.486,25.6,25.6,25.6s25.6-11.486,25.6-25.6V243.2
				C187.733,229.086,176.247,217.6,162.133,217.6z"/>
			<path style="fill:#4D4086;" d="M230.4,183.467c-14.114,0-25.6,13.397-25.6,29.867v128c0,16.469,11.486,29.867,25.6,29.867s25.6-13.397,25.6-29.867v-128
				C256,196.864,244.514,183.467,230.4,183.467z"/>
			<path style="fill:#4D4086;" d="M443.733,234.667c-4.309,0-8.619,0.418-12.868,1.246C416.137,180.284,365.517,140.8,307.2,140.8
				c-9.19,0-18.423,1.024-27.452,3.029l-6.682,1.493V371.2h170.667c37.641,0,68.267-30.626,68.267-68.267
				C512,265.293,481.374,234.667,443.733,234.667z"/>
		</g>
	</g>
</g>
</svg>
